<svg xmlns="http://www.w3.org/2000/svg" version="1.0" width="533" height="170" viewBox="0 0 4346.000000 2241.000000" preserveAspectRatio="xMidYMid meet">

<g transform="translate(0.000000,2241.000000) scale(0.100000,-0.100000)" fill="#0846f3" stroke="none">
<path d="M31227 19594 c-374 -67 -666 -318 -759 -651 -43 -156 -25 -365 49 -545 53 -131 145 -285 228 -383 29 -35 97 -163 220 -415 l178 -365 -22 -700 c-12 -385 -23 -707 -24 -716 -1 -11 -1438 1725 -1983 2397 l-22 26 -321 -400 -320 -401 1591 -1983 c875 -1091 2032 -2533 2572 -3205 l981 -1223 2259 0 c1243 0 2256 4 2251 8 -6 5 -890 233 -1965 507 l-1956 497 -1129 1376 c-622 756 -1136 1383 -1143 1394 -11 14 -23 244 -53 966 -37 883 -39 966 -29 1229 l11 281 165 284 c91 156 168 286 172 290 4 3 27 3 52 -2 25 -4 46 -7 48 -6 6 7 104 447 100 452 -3 2 -36 13 -73 24 -37 11 -69 21 -72 23 -2 2 6 42 16 88 81 341 26 649 -145 822 -45 46 -133 113 -138 105 -1 -1 -72 -175 -156 -386 -84 -210 -156 -384 -159 -386 -5 -3 -527 198 -603 232 -15 6 4 57 143 391 87 212 159 386 159 388 0 6 -46 1 -123 -13z" fill="#0846f3"/>
<path d="M22530 17961 c-3479 -514 -6328 -939 -6331 -944 -14 -20 -340 -960 -336 -970 1 -5 778 -191 1724 -411 l1721 -401 1703 -1828 c1352 -1451 1705 -1825 1715 -1815 6 7 1383 1644 3059 3638 1677 1994 3055 3633 3063 3643 8 9 13 19 11 20 -2 2 -2850 -417 -6329 -932z" fill="#0846f3"/>
<path d="M12759 15973 c-613 -621 -1052 -1128 -1529 -1764 -421 -561 -756 -944 -1305 -1495 -320 -321 -489 -481 -751 -715 l-140 -124 -51 3 c-50 4 -51 3 -124 -63 -94 -86 -206 -160 -274 -181 -52 -17 -53 -17 -110 10 -86 39 -177 111 -301 238 -314 321 -533 754 -575 1137 -22 200 -17 181 -47 176 -15 -2 -43 -7 -62 -10 -34 -5 -37 -9 -63 -76 -66 -169 -105 -369 -114 -579 -21 -513 169 -1010 553 -1446 33 -36 265 -268 517 -514 501 -491 475 -470 599 -470 83 -1 185 -18 226 -39 49 -26 107 -87 128 -136 13 -31 17 -65 15 -144 l-1 -105 173 -173 c95 -95 177 -173 183 -173 6 0 145 138 309 306 l298 305 -159 160 c-87 88 -172 167 -189 176 -23 12 -47 14 -112 10 -105 -8 -164 9 -225 63 -64 55 -87 116 -103 269 -8 69 -23 152 -35 185 -18 50 -19 65 -10 110 13 65 49 141 105 226 45 68 58 123 35 146 -11 11 191 249 561 659 658 730 1261 1341 1919 1945 661 607 1134 1068 1414 1380 81 91 151 165 156 165 4 0 646 -754 1426 -1675 l1419 -1675 2758 -250 c1516 -138 2757 -248 2757 -244 0 4 -652 772 -1448 1705 l-1448 1698 -109 22 c-3485 707 -5992 1214 -6001 1214 -6 0 -125 -116 -265 -257z" fill="#0846f3"/>
<path d="M27330 14430 l0 -530 400 0 400 0 0 530 0 530 -400 0 -400 0 0 -530z" fill="#0846f3"/>
<path d="M28490 14430 l0 -530 395 0 395 0 0 530 0 530 -395 0 -395 0 0 -530z" fill="#0846f3"/>
<path d="M12890 13430 l0 -330 220 0 220 0 0 330 0 330 -220 0 -220 0 0 -330z" fill="#0846f3"/>
<path d="M13520 13430 l0 -330 215 0 215 0 0 330 0 330 -215 0 -215 0 0 -330z" fill="#0846f3"/>
<path d="M27330 12925 l0 -525 400 0 400 0 0 525 0 525 -400 0 -400 0 0 -525z" fill="#0846f3"/>
<path d="M28490 12925 l0 -525 395 0 395 0 0 525 0 525 -395 0 -395 0 0 -525z" fill="#0846f3"/>
<path d="M12890 12500 l0 -330 220 0 220 0 0 330 0 330 -220 0 -220 0 0 -330z" fill="#0846f3"/>
<path d="M13520 12500 l0 -330 215 0 215 0 0 330 0 330 -215 0 -215 0 0 -330z" fill="#0846f3"/>
<path d="M36194 4114 c-61 -22 -119 -77 -151 -142 l-28 -57 -3 -1517 -2 -1518 270 0 270 0 2 1164 3 1163 1125 -1134 c718 -724 1146 -1149 1183 -1173 189 -125 412 -39 456 176 8 42 11 468 11 1551 l0 1493 -275 0 -275 0 -2 -1161 -3 -1161 -1145 1139 c-909 904 -1155 1144 -1195 1163 -62 31 -178 37 -241 14z" fill="#0846f3"/>
<path d="M270 2485 l0 -1605 1365 0 1365 0 0 285 0 285 -1075 0 -1075 0 0 1320 0 1320 -290 0 -290 0 0 -1605z" fill="#0846f3"/>
<path d="M3380 2485 l0 -1605 1435 0 1435 0 0 285 0 285 -1150 0 -1150 0 0 1035 0 1035 1150 0 1150 0 0 285 0 285 -1435 0 -1435 0 0 -1605z" fill="#0846f3"/>
<path d="M7924 4075 c-411 -61 -755 -257 -987 -562 -133 -174 -227 -389 -279 -633 -29 -138 -36 -474 -14 -626 30 -203 71 -336 160 -519 81 -165 165 -283 291 -410 166 -166 361 -288 575 -359 242 -80 345 -89 984 -83 556 5 575 7 786 68 396 115 752 421 929 800 242 516 218 1182 -59 1634 -216 354 -556 585 -997 677 -104 21 -128 22 -703 24 -457 2 -616 -1 -686 -11z m1222 -570 c281 -49 505 -193 652 -419 90 -139 149 -320 161 -498 37 -551 -257 -983 -755 -1110 -87 -22 -102 -23 -619 -23 -556 0 -571 1 -715 47 -254 81 -477 287 -581 536 -105 252 -117 563 -33 817 113 341 393 586 743 649 116 21 1025 22 1147 1z" fill="#0846f3"/>
<path d="M12981 4074 c-212 -36 -371 -114 -506 -249 -93 -93 -140 -161 -181 -263 -75 -187 -90 -434 -38 -636 19 -73 80 -207 123 -269 123 -179 318 -303 566 -360 86 -20 128 -21 980 -26 l890 -6 65 -23 c169 -60 253 -185 253 -377 0 -87 -20 -165 -58 -225 -32 -51 -109 -119 -161 -141 -110 -49 -97 -49 -1411 -49 l-1233 0 0 -285 0 -286 1298 4 c1167 3 1304 5 1372 20 115 26 197 55 295 106 72 37 109 65 186 141 84 84 101 107 147 200 75 154 93 231 99 432 6 194 -5 292 -48 423 -91 275 -291 443 -614 518 -86 20 -126 21 -990 27 -998 6 -949 3 -1051 73 -95 66 -145 172 -145 312 0 177 74 294 229 360 46 20 71 20 1260 23 l1212 2 0 285 0 285 -1227 -1 c-1004 -1 -1243 -4 -1312 -15z" fill="#0846f3"/>
<path d="M17344 4075 c-666 -100 -1132 -544 -1266 -1207 -20 -100 -23 -142 -23 -353 1 -222 3 -250 28 -366 34 -162 73 -275 147 -424 77 -155 171 -285 291 -405 252 -250 557 -392 928 -429 134 -14 968 -14 1102 0 378 38 681 180 939 439 131 131 221 257 299 420 220 461 226 1047 15 1499 -194 416 -566 702 -1048 808 l-121 27 -600 2 c-464 2 -621 -1 -691 -11z m1202 -566 c575 -80 930 -615 819 -1235 -73 -403 -345 -695 -742 -797 -86 -21 -101 -22 -628 -22 l-540 0 -100 28 c-281 77 -493 252 -620 512 -146 298 -153 657 -19 961 56 128 190 296 304 379 103 77 265 145 398 169 98 18 1008 22 1128 5z" fill="#0846f3"/>
<path d="M20400 2485 l0 -1605 1360 0 1360 0 0 285 0 285 -1075 0 -1075 0 0 1320 0 1320 -285 0 -285 0 0 -1605z" fill="#0846f3"/>
<path d="M23460 3162 c0 -960 5 -1116 41 -1297 119 -594 491 -899 1219 -1000 159 -22 585 -31 780 -16 805 62 1235 362 1376 961 45 193 47 225 51 1278 l5 1002 -281 0 -281 0 0 -882 c0 -919 -6 -1100 -40 -1233 -69 -271 -236 -430 -532 -510 -330 -89 -918 -83 -1223 12 -261 81 -423 244 -485 486 -36 144 -40 253 -40 1203 l0 924 -295 0 -295 0 0 -928z" fill="#0846f3"/>
<path d="M27230 3805 l0 -285 605 0 605 0 0 -1320 0 -1320 285 0 285 0 0 1320 0 1320 610 0 610 0 0 285 0 285 -1500 0 -1500 0 0 -285z" fill="#0846f3"/>
<path d="M30620 2485 l0 -1605 285 0 285 0 0 1605 0 1605 -285 0 -285 0 0 -1605z" fill="#0846f3"/>
<path d="M32964 4075 c-627 -94 -1091 -506 -1244 -1105 -67 -264 -67 -634 1 -902 167 -660 677 -1108 1341 -1178 125 -13 980 -13 1109 1 532 54 970 346 1211 806 251 479 260 1121 23 1594 -109 215 -300 426 -511 561 -140 90 -343 168 -540 210 -106 22 -128 22 -704 24 -457 2 -616 -1 -686 -11z m1202 -566 c297 -41 556 -215 703 -473 146 -256 177 -619 77 -914 -112 -329 -361 -557 -703 -645 -86 -21 -102 -22 -613 -22 -563 0 -593 2 -735 53 -271 96 -467 289 -578 567 -57 143 -72 234 -71 425 0 181 15 267 73 415 118 306 393 530 720 589 97 18 1008 22 1127 5z" fill="#0846f3"/>
<path d="M40598 4079 c-465 -68 -758 -380 -784 -837 -18 -322 114 -618 351 -788 127 -90 303 -154 478 -173 60 -7 398 -11 904 -11 678 0 818 -3 871 -15 211 -50 310 -186 300 -414 -3 -77 -9 -107 -30 -153 -35 -75 -94 -138 -168 -177 -117 -62 -74 -61 -1427 -61 l-1233 0 0 -285 0 -286 1298 4 c1408 4 1337 1 1512 58 312 103 517 344 575 676 19 109 19 312 0 428 -65 399 -304 624 -735 690 -77 12 -248 15 -920 15 -899 0 -909 1 -1011 57 -93 50 -150 138 -170 261 -31 185 59 359 219 424 l57 23 1208 3 1207 2 0 285 0 285 -1222 -1 c-673 -1 -1249 -5 -1280 -10z" fill="#0846f3"/>
<path d="M4340 2510 l0 -240 895 0 895 0 0 240 0 240 -895 0 -895 0 0 -240z" fill="#0846f3"/>
</g>
</svg>